<svg width="23" height="16" viewBox="0 0 23 16" fill="none" xmlns="http://www.w3.org/2000/svg">
    <path d="M0.046875 14.5204V1.84837C0.046875 1.83371 0.069178 1.69438 0.113784 1.43038L7.67451 7.81038L0.136087 14.9604C0.0766124 14.755 0.046875 14.6084 0.046875 14.5204ZM1.05051 0.550375C1.15459 0.506375 1.28098 0.484375 1.42966 0.484375H21.7923C21.9261 0.484375 22.06 0.506375 22.1938 0.550375L14.6108 6.95237L13.6071 7.74437L11.6221 9.35037L9.63718 7.74437L8.63354 6.95237L1.05051 0.550375ZM1.07281 15.8184L8.67815 8.62438L11.6221 10.9784L14.5661 8.62438L22.1715 15.8184C22.0525 15.8624 21.9261 15.8844 21.7923 15.8844H1.42966C1.31071 15.8844 1.19176 15.8624 1.07281 15.8184ZM15.5698 7.81038L23.1082 1.43038C23.1528 1.56238 23.1751 1.70171 23.1751 1.84837V14.5204C23.1751 14.6524 23.1528 14.799 23.1082 14.9604L15.5698 7.81038Z" fill="black"/>
</svg>
