<svg width="179" height="29" viewBox="0 0 179 29" fill="none" xmlns="http://www.w3.org/2000/svg">
<path d="M8.37 19.77C8.37 21.59 8.01 23.14 7.29 24.42C6.59 25.72 5.62 26.71 4.38 27.39C3.14 28.09 1.72 28.47 0.12 28.53V25.14C1.5 25.06 2.63 24.6 3.51 23.76C4.41 22.9 4.86 21.54 4.86 19.68V2.16H8.37V19.77ZM17.7572 24.54C16.5972 24.54 15.6372 24.19 14.8772 23.49C14.1172 22.77 13.7172 21.85 13.6772 20.73V11.31H17.0372V19.53C17.0772 20.15 17.2572 20.66 17.5772 21.06C17.8972 21.46 18.4072 21.66 19.1072 21.66C19.7672 21.66 20.3572 21.46 20.8772 21.06C21.3972 20.64 21.7972 20.07 22.0772 19.35C22.3772 18.63 22.5272 17.82 22.5272 16.92V11.31H25.8872V24H22.8572L22.5872 21.21L22.6772 21.66C22.4172 22.2 22.0472 22.7 21.5672 23.16C21.0872 23.6 20.5172 23.94 19.8572 24.18C19.2172 24.42 18.5172 24.54 17.7572 24.54ZM30.5229 0.599999H33.8829V24H30.5229V0.599999ZM38.4916 11.31H41.8516V24H38.4916V11.31ZM38.3416 6.78C38.3416 6.26 38.5416 5.83 38.9416 5.49C39.3616 5.15 39.8116 4.98 40.2916 4.98C40.7716 4.98 41.2016 5.15 41.5816 5.49C41.9816 5.83 42.1816 6.26 42.1816 6.78C42.1816 7.3 41.9816 7.73 41.5816 8.07C41.2016 8.39 40.7716 8.55 40.2916 8.55C39.8116 8.55 39.3616 8.38 38.9416 8.04C38.5416 7.7 38.3416 7.28 38.3416 6.78ZM51.8004 24.33C50.6004 24.33 49.5104 24.08 48.5304 23.58C47.5704 23.08 46.8104 22.34 46.2504 21.36C45.6904 20.36 45.4104 19.13 45.4104 17.67C45.4104 16.23 45.7004 15 46.2804 13.98C46.8804 12.94 47.6604 12.14 48.6204 11.58C49.6004 11.02 50.6604 10.74 51.8004 10.74C53.0204 10.74 54.0004 10.98 54.7404 11.46C55.5004 11.94 56.0904 12.51 56.5104 13.17L56.3304 13.65L56.6604 11.31H59.7504V24H56.3904V20.91L56.7204 21.72C56.6404 21.84 56.4804 22.04 56.2404 22.32C56.0004 22.58 55.6704 22.87 55.2504 23.19C54.8304 23.51 54.3304 23.78 53.7504 24C53.1904 24.22 52.5404 24.33 51.8004 24.33ZM52.7304 21.57C53.3304 21.57 53.8704 21.46 54.3504 21.24C54.8504 21.02 55.2704 20.71 55.6104 20.31C55.9704 19.91 56.2304 19.43 56.3904 18.87V16.11C56.2304 15.59 55.9704 15.14 55.6104 14.76C55.2504 14.36 54.8104 14.05 54.2904 13.83C53.7904 13.61 53.2304 13.5 52.6104 13.5C51.9304 13.5 51.3004 13.67 50.7204 14.01C50.1404 14.35 49.6704 14.82 49.3104 15.42C48.9704 16.02 48.8004 16.71 48.8004 17.49C48.8004 18.25 48.9804 18.94 49.3404 19.56C49.7004 20.18 50.1804 20.67 50.7804 21.03C51.3804 21.39 52.0304 21.57 52.7304 21.57ZM86.1495 6.6C85.3695 6.2 84.5395 5.86 83.6595 5.58C82.7795 5.28 81.9395 5.13 81.1395 5.13C80.0595 5.13 79.1995 5.37 78.5595 5.85C77.9395 6.33 77.6295 6.99 77.6295 7.83C77.6295 8.43 77.8495 8.96 78.2895 9.42C78.7295 9.86 79.2895 10.25 79.9695 10.59C80.6495 10.91 81.3695 11.22 82.1295 11.52C82.7895 11.76 83.4395 12.05 84.0795 12.39C84.7395 12.71 85.3295 13.11 85.8495 13.59C86.3695 14.07 86.7795 14.67 87.0795 15.39C87.3995 16.09 87.5595 16.96 87.5595 18C87.5595 19.14 87.2695 20.19 86.6895 21.15C86.1095 22.09 85.2795 22.84 84.1995 23.4C83.1195 23.96 81.7995 24.24 80.2395 24.24C79.3395 24.24 78.4495 24.14 77.5695 23.94C76.7095 23.74 75.8895 23.47 75.1095 23.13C74.3295 22.77 73.6095 22.37 72.9495 21.93L74.5095 19.2C74.9895 19.56 75.5395 19.89 76.1595 20.19C76.7795 20.49 77.4195 20.73 78.0795 20.91C78.7395 21.07 79.3595 21.15 79.9395 21.15C80.5595 21.15 81.1695 21.05 81.7695 20.85C82.3895 20.65 82.8995 20.32 83.2995 19.86C83.7195 19.4 83.9295 18.79 83.9295 18.03C83.9295 17.41 83.7495 16.88 83.3895 16.44C83.0295 16 82.5595 15.62 81.9795 15.3C81.4195 14.96 80.7995 14.66 80.1195 14.4C79.4395 14.14 78.7395 13.85 78.0195 13.53C77.3195 13.21 76.6695 12.82 76.0695 12.36C75.4695 11.88 74.9795 11.3 74.5995 10.62C74.2195 9.94 74.0295 9.1 74.0295 8.1C74.0295 6.9 74.3095 5.86 74.8695 4.98C75.4295 4.1 76.1995 3.4 77.1795 2.88C78.1795 2.36 79.3295 2.08 80.6295 2.04C82.1695 2.04 83.4795 2.23 84.5595 2.61C85.6595 2.97 86.6295 3.41 87.4695 3.93L86.1495 6.6ZM96.8004 24.33C95.6004 24.33 94.5104 24.08 93.5304 23.58C92.5704 23.08 91.8104 22.34 91.2504 21.36C90.6904 20.36 90.4104 19.13 90.4104 17.67C90.4104 16.23 90.7004 15 91.2804 13.98C91.8804 12.94 92.6604 12.14 93.6204 11.58C94.6004 11.02 95.6604 10.74 96.8004 10.74C98.0204 10.74 99.0004 10.98 99.7404 11.46C100.5 11.94 101.09 12.51 101.51 13.17L101.33 13.65L101.66 11.31H104.75V24H101.39V20.91L101.72 21.72C101.64 21.84 101.48 22.04 101.24 22.32C101 22.58 100.67 22.87 100.25 23.19C99.8304 23.51 99.3304 23.78 98.7504 24C98.1904 24.22 97.5404 24.33 96.8004 24.33ZM97.7304 21.57C98.3304 21.57 98.8704 21.46 99.3504 21.24C99.8504 21.02 100.27 20.71 100.61 20.31C100.97 19.91 101.23 19.43 101.39 18.87V16.11C101.23 15.59 100.97 15.14 100.61 14.76C100.25 14.36 99.8104 14.05 99.2904 13.83C98.7904 13.61 98.2304 13.5 97.6104 13.5C96.9304 13.5 96.3004 13.67 95.7204 14.01C95.1404 14.35 94.6704 14.82 94.3104 15.42C93.9704 16.02 93.8004 16.71 93.8004 17.49C93.8004 18.25 93.9804 18.94 94.3404 19.56C94.7004 20.18 95.1804 20.67 95.7804 21.03C96.3804 21.39 97.0304 21.57 97.7304 21.57ZM112.42 11.31L112.72 14.04L112.6 13.68C113.04 12.8 113.69 12.1 114.55 11.58C115.43 11.04 116.47 10.77 117.67 10.77C118.87 10.77 119.86 11.12 120.64 11.82C121.42 12.52 121.82 13.44 121.84 14.58V24H118.48V15.78C118.46 15.14 118.28 14.63 117.94 14.25C117.6 13.85 117.06 13.64 116.32 13.62C115.64 13.62 115.03 13.83 114.49 14.25C113.95 14.65 113.52 15.21 113.2 15.93C112.9 16.63 112.75 17.44 112.75 18.36V24H109.39V11.31H112.42ZM127.67 5.73H131.06V11.31H134.36V13.95H131.06V24H127.67V13.95H125.51V11.31H127.67V5.73ZM136.612 17.52C136.612 16.24 136.912 15.09 137.512 14.07C138.112 13.03 138.952 12.22 140.032 11.64C141.132 11.04 142.372 10.74 143.752 10.74C145.172 10.74 146.402 11.04 147.442 11.64C148.502 12.22 149.322 13.03 149.902 14.07C150.482 15.09 150.772 16.24 150.772 17.52C150.772 18.8 150.482 19.96 149.902 21C149.322 22.02 148.502 22.83 147.442 23.43C146.402 24.03 145.162 24.33 143.722 24.33C142.362 24.33 141.142 24.06 140.062 23.52C138.982 22.96 138.132 22.17 137.512 21.15C136.912 20.13 136.612 18.92 136.612 17.52ZM140.002 17.55C140.002 18.29 140.162 18.97 140.482 19.59C140.802 20.19 141.242 20.67 141.802 21.03C142.362 21.39 142.982 21.57 143.662 21.57C144.402 21.57 145.042 21.39 145.582 21.03C146.142 20.67 146.572 20.19 146.872 19.59C147.192 18.97 147.352 18.29 147.352 17.55C147.352 16.79 147.192 16.11 146.872 15.51C146.572 14.89 146.142 14.4 145.582 14.04C145.042 13.68 144.402 13.5 143.662 13.5C142.962 13.5 142.332 13.69 141.772 14.07C141.232 14.43 140.802 14.91 140.482 15.51C140.162 16.11 140.002 16.79 140.002 17.55ZM157.332 11.31L157.632 14.91L157.512 14.4C157.872 13.64 158.362 12.99 158.982 12.45C159.622 11.89 160.272 11.47 160.932 11.19C161.592 10.89 162.132 10.74 162.552 10.74L162.402 14.1C161.442 14.02 160.602 14.2 159.882 14.64C159.182 15.06 158.632 15.62 158.232 16.32C157.852 17.02 157.662 17.76 157.662 18.54V24H154.302V11.31H157.332ZM164.385 17.52C164.385 16.24 164.685 15.09 165.285 14.07C165.885 13.03 166.725 12.22 167.805 11.64C168.905 11.04 170.145 10.74 171.525 10.74C172.945 10.74 174.175 11.04 175.215 11.64C176.275 12.22 177.095 13.03 177.675 14.07C178.255 15.09 178.545 16.24 178.545 17.52C178.545 18.8 178.255 19.96 177.675 21C177.095 22.02 176.275 22.83 175.215 23.43C174.175 24.03 172.935 24.33 171.495 24.33C170.135 24.33 168.915 24.06 167.835 23.52C166.755 22.96 165.905 22.17 165.285 21.15C164.685 20.13 164.385 18.92 164.385 17.52ZM167.775 17.55C167.775 18.29 167.935 18.97 168.255 19.59C168.575 20.19 169.015 20.67 169.575 21.03C170.135 21.39 170.755 21.57 171.435 21.57C172.175 21.57 172.815 21.39 173.355 21.03C173.915 20.67 174.345 20.19 174.645 19.59C174.965 18.97 175.125 18.29 175.125 17.55C175.125 16.79 174.965 16.11 174.645 15.51C174.345 14.89 173.915 14.4 173.355 14.04C172.815 13.68 172.175 13.5 171.435 13.5C170.735 13.5 170.105 13.69 169.545 14.07C169.005 14.43 168.575 14.91 168.255 15.51C167.935 16.11 167.775 16.79 167.775 17.55Z" fill="black"/>
</svg>
