<svg width="17" height="17" viewBox="0 0 17 17" fill="none" xmlns="http://www.w3.org/2000/svg">
    <path d="M6.88209 6.68989V6.02838C6.65247 5.99202 6.42054 5.9721 6.18807 5.96876C3.93749 5.96396 1.94497 7.42241 1.26911 9.56913C0.593257 11.7158 1.39103 14.0527 3.23834 15.338C2.56093 14.613 2.10783 13.7075 1.93374 12.7306C1.75965 11.7538 1.872 10.7475 2.25725 9.83308C2.6425 8.91871 3.28416 8.13535 4.1048 7.57763C4.92544 7.01989 5.88996 6.71161 6.88196 6.68997L6.88209 6.68989Z" fill="#25F4EE"/>
    <path d="M7.00714 14.1786C8.26546 14.1769 9.29978 13.1856 9.35487 11.9285V0.710312H11.4043C11.3625 0.475899 11.3425 0.238106 11.3447 0H8.5415V11.2074C8.49487 12.4709 7.45809 13.4717 6.19374 13.4737C5.81592 13.4705 5.44425 13.3776 5.10938 13.2027C5.32642 13.5033 5.61146 13.7485 5.94126 13.9181C6.27107 14.0877 6.63628 14.177 7.00714 14.1786ZM15.2323 4.51652V3.89297C14.478 3.89327 13.7405 3.67072 13.1123 3.25323C13.663 3.89343 14.4071 4.33687 15.2323 4.51652Z" fill="#25F4EE"/>
    <path d="M13.1167 3.25934C12.4978 2.55466 12.1567 1.64878 12.157 0.710938H11.4087C11.5053 1.22946 11.7066 1.72285 12.0003 2.161C12.2939 2.59915 12.6738 2.97286 13.1167 3.25934ZM6.19274 8.77355C5.66793 8.7762 5.15907 8.95423 4.74706 9.27934C4.33505 9.60443 4.04355 10.0579 3.91891 10.5677C3.79425 11.0775 3.84359 11.6144 4.05912 12.0929C4.27461 12.5715 4.64392 12.9642 5.10829 13.2088C4.85437 12.8582 4.70235 12.4443 4.66895 12.0127C4.63557 11.5812 4.72212 11.1488 4.91904 10.7634C5.11599 10.3779 5.41565 10.0544 5.78493 9.8286C6.15418 9.60278 6.57869 9.48345 7.01153 9.48378C7.24685 9.48684 7.48051 9.52347 7.70547 9.59256V6.74027C7.47574 6.70581 7.24384 6.6877 7.01153 6.68607H6.88676V8.85483C6.6606 8.79418 6.42681 8.7668 6.19274 8.77355Z" fill="#FE2C55"/>
    <path d="M15.2358 4.51562V6.68447C13.8395 6.68176 12.4794 6.23976 11.3483 5.42113V11.1197C11.3422 13.9632 9.03542 16.2652 6.19192 16.2652C5.13586 16.2671 4.10523 15.9413 3.24219 15.3326C3.94594 16.0896 4.86134 16.617 5.86913 16.8463C6.87691 17.0756 7.93042 16.9961 8.89237 16.6181C9.85432 16.2401 10.6802 15.5812 11.2623 14.7272C11.8445 13.8732 12.1559 12.8637 12.1562 11.8302V6.14771C13.2911 6.96097 14.6529 7.39719 16.0491 7.39478V4.60217C15.7758 4.60136 15.5032 4.57235 15.2358 4.51562Z" fill="#FE2C55"/>
    <path d="M11.3489 11.1267V5.42813C12.4835 6.24209 13.8455 6.6784 15.2419 6.67517V4.50641C14.4169 4.33218 13.671 3.89449 13.1165 3.25934C12.6736 2.97286 12.2938 2.59915 12.0001 2.161C11.7064 1.72285 11.5051 1.22946 11.4085 0.710938H9.35908V11.9347C9.33912 12.4233 9.16747 12.8935 8.868 13.28C8.56851 13.6665 8.15606 13.9501 7.68795 14.0914C7.21987 14.2327 6.71939 14.2247 6.25605 14.0685C5.79274 13.9123 5.38956 13.6156 5.1026 13.2197C4.63817 12.9752 4.26878 12.5824 4.05323 12.1039C3.83766 11.6253 3.78828 11.0884 3.91295 10.5786C4.03762 10.0687 4.32914 9.61517 4.7412 9.29008C5.15327 8.96497 5.66221 8.78694 6.18707 8.78434C6.42247 8.78645 6.65629 8.823 6.88109 8.89282V6.72398C5.88378 6.74089 4.91291 7.0476 4.08691 7.60675C3.26088 8.16588 2.6154 8.95328 2.22915 9.87293C1.8429 10.7926 1.73257 11.8048 1.91161 12.786C2.09066 13.7673 2.55134 14.6752 3.2375 15.3992C4.10901 15.9878 5.1411 16.2927 6.19255 16.2722C9.03605 16.2722 11.3429 13.9702 11.3489 11.1267Z" fill="black"/>
</svg>
