<svg width="83" height="85" viewBox="0 0 83 85" fill="none" xmlns="http://www.w3.org/2000/svg">
<rect width="83" height="83" fill="white"/>
<rect width="83" height="83" fill="white"/>
<g filter="url(#filter0_d_214_819)">
<path d="M41.4974 6.91406C34.6575 6.91406 27.9711 8.94234 22.2839 12.7424C16.5967 16.5425 12.1641 21.9436 9.54658 28.2629C6.92905 34.5822 6.24418 41.5358 7.57859 48.2443C8.91299 54.9528 12.2067 61.1149 17.0433 65.9515C21.8799 70.7881 28.042 74.0818 34.7505 75.4162C41.459 76.7506 48.4126 76.0658 54.7319 73.4482C61.0512 70.8307 66.4523 66.3981 70.2524 60.7109C74.0525 55.0237 76.0807 48.3373 76.0807 41.4974C76.0807 36.9558 75.1862 32.4588 73.4482 28.2629C71.7103 24.0671 69.1629 20.2546 65.9515 17.0433C62.7402 13.8319 58.9277 11.2845 54.7319 9.54656C50.536 7.80859 46.039 6.91406 41.4974 6.91406ZM55.3307 44.9557H41.4974C40.5802 44.9557 39.7006 44.5914 39.052 43.9428C38.4034 43.2942 38.0391 42.4146 38.0391 41.4974V27.6641C38.0391 26.7469 38.4034 25.8672 39.052 25.2187C39.7006 24.5701 40.5802 24.2057 41.4974 24.2057C42.4146 24.2057 43.2943 24.5701 43.9428 25.2187C44.5914 25.8672 44.9557 26.7469 44.9557 27.6641V38.0391H55.3307C56.248 38.0391 57.1276 38.4034 57.7762 39.052C58.4247 39.7005 58.7891 40.5802 58.7891 41.4974C58.7891 42.4146 58.4247 43.2942 57.7762 43.9428C57.1276 44.5914 56.248 44.9557 55.3307 44.9557Z" fill="#67A267"/>
</g>
<defs>
<filter id="filter0_d_214_819" x="2.91406" y="6.91406" width="77.1641" height="77.1641" filterUnits="userSpaceOnUse" color-interpolation-filters="sRGB">
<feFlood flood-opacity="0" result="BackgroundImageFix"/>
<feColorMatrix in="SourceAlpha" type="matrix" values="0 0 0 0 0 0 0 0 0 0 0 0 0 0 0 0 0 0 127 0" result="hardAlpha"/>
<feOffset dy="4"/>
<feGaussianBlur stdDeviation="2"/>
<feComposite in2="hardAlpha" operator="out"/>
<feColorMatrix type="matrix" values="0 0 0 0 0 0 0 0 0 0 0 0 0 0 0 0 0 0 0.25 0"/>
<feBlend mode="normal" in2="BackgroundImageFix" result="effect1_dropShadow_214_819"/>
<feBlend mode="normal" in="SourceGraphic" in2="effect1_dropShadow_214_819" result="shape"/>
</filter>
</defs>
</svg>
