<svg width="79" height="79" viewBox="0 0 79 79" fill="none" xmlns="http://www.w3.org/2000/svg">
<path d="M39.4974 0.914062C32.6575 0.914062 25.9711 2.94234 20.2839 6.74241C14.5967 10.5425 10.1641 15.9436 7.54658 22.2629C4.92905 28.5822 4.24418 35.5358 5.57859 42.2443C6.91299 48.9528 10.2067 55.1149 15.0433 59.9515C19.8799 64.7881 26.042 68.0818 32.7505 69.4162C39.459 70.7506 46.4126 70.0658 52.7319 67.4482C59.0512 64.8307 64.4523 60.3981 68.2524 54.7109C72.0525 49.0237 74.0807 42.3373 74.0807 35.4974C74.0807 30.9558 73.1862 26.4588 71.4482 22.2629C69.7103 18.0671 67.1629 14.2546 63.9515 11.0433C60.7402 7.83193 56.9277 5.28454 52.7319 3.54656C48.536 1.80859 44.039 0.914063 39.4974 0.914062ZM53.3307 38.9557H39.4974C38.5802 38.9557 37.7006 38.5914 37.052 37.9428C36.4034 37.2942 36.0391 36.4146 36.0391 35.4974V21.6641C36.0391 20.7469 36.4034 19.8672 37.052 19.2187C37.7006 18.5701 38.5802 18.2057 39.4974 18.2057C40.4146 18.2057 41.2943 18.5701 41.9428 19.2187C42.5914 19.8672 42.9557 20.7469 42.9557 21.6641V32.0391H53.3307C54.248 32.0391 55.1276 32.4034 55.7762 33.052C56.4247 33.7005 56.7891 34.5802 56.7891 35.4974C56.7891 36.4146 56.4247 37.2942 55.7762 37.9428C55.1276 38.5914 54.248 38.9557 53.3307 38.9557Z" fill="url(#paint0_linear_214_818)" shape-rendering="crispEdges"/>
<defs>
<linearGradient id="paint0_linear_214_818" x1="39.4974" y1="0.914062" x2="39.4974" y2="70.0807" gradientUnits="userSpaceOnUse">
<stop stop-color="#81AE9D"/>
<stop offset="0.145833" stop-color="#81AE9D" stop-opacity="0.991566"/>
<stop offset="0.833333" stop-color="#81AE9D" stop-opacity="0.984714"/>
<stop offset="0.9997" stop-color="#81AE9D" stop-opacity="0.99675"/>
<stop offset="0.9998" stop-color="#81AE9D" stop-opacity="0.943571"/>
<stop offset="0.9999" stop-color="#81AE9D" stop-opacity="0.583333"/>
<stop offset="1" stop-color="#81AE9D" stop-opacity="0"/>
</linearGradient>
</defs>
</svg>
