<svg width="79" height="79" viewBox="0 0 79 79" fill="none" xmlns="http://www.w3.org/2000/svg">
<g filter="url(#filter0_d_214_814)">
<path d="M72.0481 34.0527L40.9231 2.92771C39.6781 1.68271 37.949 0.921875 36.0469 0.921875H11.8385C8.03437 0.921875 4.92188 4.03437 4.92188 7.83854V32.0469C4.92188 33.949 5.68271 35.6781 6.96229 36.9577L38.0873 68.0827C39.3323 69.3277 41.0615 70.0885 42.9635 70.0885C44.8656 70.0885 46.5948 69.3277 47.8398 68.0481L72.0481 43.8398C73.3277 42.5948 74.0885 40.8656 74.0885 38.9635C74.0885 37.0615 73.2931 35.2977 72.0481 34.0527ZM17.026 18.2135C14.1556 18.2135 11.8385 15.8965 11.8385 13.026C11.8385 10.1556 14.1556 7.83854 17.026 7.83854C19.8965 7.83854 22.2135 10.1556 22.2135 13.026C22.2135 15.8965 19.8965 18.2135 17.026 18.2135Z" fill="url(#paint0_linear_214_814)" shape-rendering="crispEdges"/>
</g>
<defs>
<filter id="filter0_d_214_814" x="0.921875" y="0.921875" width="77.1641" height="77.1641" filterUnits="userSpaceOnUse" color-interpolation-filters="sRGB">
<feFlood flood-opacity="0" result="BackgroundImageFix"/>
<feColorMatrix in="SourceAlpha" type="matrix" values="0 0 0 0 0 0 0 0 0 0 0 0 0 0 0 0 0 0 127 0" result="hardAlpha"/>
<feOffset dy="4"/>
<feGaussianBlur stdDeviation="2"/>
<feComposite in2="hardAlpha" operator="out"/>
<feColorMatrix type="matrix" values="0 0 0 0 0 0 0 0 0 0 0 0 0 0 0 0 0 0 0.25 0"/>
<feBlend mode="normal" in2="BackgroundImageFix" result="effect1_dropShadow_214_814"/>
<feBlend mode="normal" in="SourceGraphic" in2="effect1_dropShadow_214_814" result="shape"/>
</filter>
<linearGradient id="paint0_linear_214_814" x1="39.5052" y1="0.921875" x2="39.5052" y2="70.0885" gradientUnits="userSpaceOnUse">
<stop stop-color="#81AE9D"/>
<stop offset="0.145833" stop-color="#81AE9D" stop-opacity="0.991566"/>
<stop offset="0.833333" stop-color="#81AE9D" stop-opacity="0.984714"/>
<stop offset="0.9997" stop-color="#81AE9D" stop-opacity="0.99675"/>
<stop offset="0.9998" stop-color="#81AE9D" stop-opacity="0.943571"/>
<stop offset="0.9999" stop-color="#81AE9D" stop-opacity="0.583333"/>
<stop offset="1" stop-color="#81AE9D" stop-opacity="0"/>
</linearGradient>
</defs>
</svg>
