<svg width="80" height="78" viewBox="0 0 80 78" fill="none" xmlns="http://www.w3.org/2000/svg">
<path d="M79.9599 26.1968L76.605 45.4432C76.1913 47.5693 74.4973 48.862 72.5439 48.8863H23.6333L22.6623 54.36H69.2773C71.7319 54.5466 73.3969 56.2854 73.4268 58.5094C73.2483 60.9589 71.5096 62.6284 69.2773 62.6588H17.7182C14.9297 62.408 13.267 60.1853 13.5687 57.7148L15.7759 45.7079L12.421 11.9826L2.88613 8.98102C0.55606 8.05588 -0.39494 5.94802 0.14926 3.77215C1.05413 1.50448 3.22233 0.468416 5.35813 1.03528L17.5416 4.91988C19.1829 5.53515 20.1271 6.87868 20.3667 8.45135L21.073 15.1611L76.3401 21.3411C78.8794 21.8912 80.258 23.9026 79.9599 26.1968ZM30.3515 71.3714C30.3515 74.8698 27.5155 77.7059 24.0169 77.7059C20.5185 77.7059 17.6825 74.8698 17.6825 71.3714C17.6825 67.8729 20.5185 65.0368 24.0169 65.0368C27.5154 65.0369 30.3515 67.873 30.3515 71.3714ZM68.1683 71.3714C68.1683 74.8698 65.3322 77.7059 61.8337 77.7059C58.3352 77.7059 55.4992 74.8698 55.4992 71.3714C55.4992 67.8729 58.3352 65.0368 61.8337 65.0368C65.3322 65.0369 68.1683 67.873 68.1683 71.3714Z" fill="url(#paint0_linear_214_797)"/>
<defs>
<linearGradient id="paint0_linear_214_797" x1="40" y1="0.882812" x2="40" y2="77.7059" gradientUnits="userSpaceOnUse">
<stop stop-color="#81AE9D"/>
<stop offset="0.145833" stop-color="#81AE9D" stop-opacity="0.991566"/>
<stop offset="0.833333" stop-color="#81AE9D" stop-opacity="0.984714"/>
<stop offset="0.9997" stop-color="#81AE9D" stop-opacity="0.99675"/>
<stop offset="0.9998" stop-color="#81AE9D" stop-opacity="0.943571"/>
<stop offset="0.9999" stop-color="#81AE9D" stop-opacity="0.583333"/>
<stop offset="1" stop-color="#81AE9D" stop-opacity="0"/>
</linearGradient>
</defs>
</svg>
