<svg viewBox="0 0 230 198" fill="none" xmlns="http://www.w3.org/2000/svg">
    <g class="bike-wheel-spin">
        <line x1="48.57" y1="107.556" x2="47.1236" y2="149.531" stroke="#A6A6A6"/>
        <line x1="90.0815" y1="160.889" x2="49.5126" y2="150.019" stroke="#A6A6A6"/>
        <line x1="17.6074" y1="182.748" x2="47.3059" y2="153.05" stroke="#A6A6A6"/>
        <line x1="58.3781" y1="108.174" x2="49.0415" y2="149.123" stroke="#A6A6A6"/>
        <line x1="86.704" y1="171.02" x2="49.5667" y2="151.403" stroke="#A6A6A6"/>
        <line x1="10.523" y1="174.756" x2="46.0803" y2="152.403" stroke="#A6A6A6"/>
        <line x1="67.9735" y1="111.757" x2="49.6684" y2="149.558" stroke="#A6A6A6"/>
        <line x1="80.759" y1="179.363" x2="48.9836" y2="151.898" stroke="#A6A6A6"/>
        <line x1="6.26557" y1="165.434" x2="45.9386" y2="151.648" stroke="#A6A6A6"/>
        <line y1="-0.5" x2="44.5443" y2="-0.5" transform="matrix(0.523325 0.852133 -0.870794 0.491649 24.2188 112.367)"
              stroke="#A6A6A6"/>
        <line x1="77.5959" y1="119.884" x2="48.5826" y2="150.253" stroke="#A6A6A6"/>
        <line x1="70.4244" y1="186.557" x2="48.6001" y2="150.672" stroke="#A6A6A6"/>
        <line x1="5.20734" y1="152.891" x2="47.1964" y2="151.933" stroke="#A6A6A6"/>
        <line y1="-0.5" x2="44.142" y2="-0.5" transform="matrix(0.194022 0.980997 -0.984323 0.176376 37.2188 108.164)"
              stroke="#A6A6A6"/>
        <line x1="83.6332" y1="126.957" x2="48.489" y2="149.955" stroke="#A6A6A6"/>
        <line x1="62.025" y1="190.555" x2="48.9071" y2="150.656" stroke="#A6A6A6"/>
        <line x1="5.946" y1="143.612" x2="47.0584" y2="152.201" stroke="#A6A6A6"/>
        <line x1="87.5256" y1="135.005" x2="48.4022" y2="150.281" stroke="#A6A6A6"/>
        <line x1="53.2452" y1="192.235" x2="48.6154" y2="150.491" stroke="#A6A6A6"/>
        <line x1="6.40445" y1="134.075" x2="46.4044" y2="150.075" stroke="#A6A6A6"/>
        <line x1="90.8819" y1="144.034" x2="49.2887" y2="149.865" stroke="#A6A6A6"/>
        <line x1="43.6522" y1="193.134" x2="48.7849" y2="151.449" stroke="#A6A6A6"/>
        <line x1="9.48272" y1="126.114" x2="46.4827" y2="149.114" stroke="#A6A6A6"/>
        <line x1="90.1793" y1="151.383" x2="48.2008" y2="150.041" stroke="#A6A6A6"/>
        <line x1="25.7861" y1="187.58" x2="47.9369" y2="151.896" stroke="#A6A6A6"/>
        <line x1="36.7402" y1="191.597" x2="48.9005" y2="151.396" stroke="#A6A6A6"/>
        <line x1="14.5777" y1="116.191" x2="46.5777" y2="149.191" stroke="#A6A6A6"/>
        <circle cx="47.7188" cy="150.039" r="45" stroke="black" stroke-width="5"/>
        <circle cx="47.7188" cy="150.039" r="4.5" fill="black"/>
    </g>
    <g class="bike-wheel-spin">
        <line x1="182.57" y1="107.556" x2="181.124" y2="149.531" stroke="#A6A6A6"/>
        <line x1="224.082" y1="160.889" x2="183.513" y2="150.019" stroke="#A6A6A6"/>
        <line x1="151.607" y1="182.748" x2="181.306" y2="153.05" stroke="#A6A6A6"/>
        <line x1="192.378" y1="108.174" x2="183.041" y2="149.123" stroke="#A6A6A6"/>
        <line x1="220.704" y1="171.02" x2="183.567" y2="151.403" stroke="#A6A6A6"/>
        <line x1="144.523" y1="174.756" x2="180.08" y2="152.403" stroke="#A6A6A6"/>
        <line x1="201.973" y1="111.757" x2="183.668" y2="149.558" stroke="#A6A6A6"/>
        <line x1="214.759" y1="179.363" x2="182.984" y2="151.898" stroke="#A6A6A6"/>
        <line x1="140.266" y1="165.434" x2="179.939" y2="151.648" stroke="#A6A6A6"/>
        <line y1="-0.5" x2="44.5443" y2="-0.5" transform="matrix(0.523325 0.852133 -0.870794 0.491649 158.219 112.367)"
              stroke="#A6A6A6"/>
        <line x1="211.596" y1="119.884" x2="182.583" y2="150.253" stroke="#A6A6A6"/>
        <line x1="204.424" y1="186.557" x2="182.6" y2="150.672" stroke="#A6A6A6"/>
        <line x1="139.207" y1="152.891" x2="181.196" y2="151.933" stroke="#A6A6A6"/>
        <line y1="-0.5" x2="44.142" y2="-0.5" transform="matrix(0.194022 0.980997 -0.984323 0.176376 171.219 108.164)"
              stroke="#A6A6A6"/>
        <line x1="217.633" y1="126.957" x2="182.489" y2="149.955" stroke="#A6A6A6"/>
        <line x1="196.025" y1="190.555" x2="182.907" y2="150.656" stroke="#A6A6A6"/>
        <line x1="139.946" y1="143.612" x2="181.058" y2="152.201" stroke="#A6A6A6"/>
        <line x1="221.526" y1="135.005" x2="182.402" y2="150.281" stroke="#A6A6A6"/>
        <line x1="187.245" y1="192.235" x2="182.615" y2="150.491" stroke="#A6A6A6"/>
        <line x1="140.404" y1="134.075" x2="180.404" y2="150.075" stroke="#A6A6A6"/>
        <line x1="224.882" y1="144.034" x2="183.289" y2="149.865" stroke="#A6A6A6"/>
        <line x1="177.652" y1="193.134" x2="182.785" y2="151.449" stroke="#A6A6A6"/>
        <line x1="143.483" y1="126.114" x2="180.483" y2="149.114" stroke="#A6A6A6"/>
        <line x1="224.179" y1="151.383" x2="182.201" y2="150.041" stroke="#A6A6A6"/>
        <line x1="159.786" y1="187.58" x2="181.937" y2="151.896" stroke="#A6A6A6"/>
        <line x1="170.74" y1="191.597" x2="182.901" y2="151.396" stroke="#A6A6A6"/>
        <line x1="148.578" y1="116.191" x2="180.578" y2="149.191" stroke="#A6A6A6"/>
        <circle cx="181.719" cy="150.039" r="45" stroke="black" stroke-width="5"/>
        <circle cx="181.719" cy="150.039" r="4.5" fill="black"/>
    </g>
    <path d="M87.9531 108.625L90.2391 110.911L51.1555 149.995C50.5242 150.626 49.5008 150.626 48.8695 149.995V149.995C48.2383 149.363 48.2383 148.34 48.8695 147.709L87.9531 108.625Z"
          fill="#717171"/>
    <path d="M105.625 149.766L105.497 152.996L48.6512 150.746C47.7591 150.711 47.0646 149.959 47.0999 149.067V149.067C47.1352 148.175 47.887 147.481 48.779 147.516L105.625 149.766Z"
          fill="#717171"/>
    <rect x="72.2188" y="73.7891" width="5.82" height="80.0079" transform="rotate(-22.7287 72.2188 73.7891)"
          fill="#717171"/>
    <circle cx="108.219" cy="151.539" r="12" fill="#8B8B8B"/>
    <rect x="72.2188" y="70.5391" width="20" height="4" fill="#717171"/>
    <rect x="122.438" y="172.797" width="10.6916" height="2.80095" rx="0.5" transform="rotate(8.12178 122.438 172.797)"
          fill="#8B8B8B"/>
    <path d="M98.5156 23.0156L102.419 23.8913L99.1537 29.3079L97.64 26.9186L98.5156 23.0156Z" fill="#191847"/>
    <path fill-rule="evenodd" clip-rule="evenodd"
          d="M96.0143 18.5879C94.8745 16.1236 94.3619 13.302 95.1919 10.4554C97.5836 2.25364 107.592 6.42132 108.676 11.075C109.761 15.7287 107.131 26.3259 104.343 26.4888C103.231 26.5537 101.17 25.3213 99.2461 23.2958L98.1597 34.7938L89.7659 32.9106L96.0143 18.5879Z"
          fill="#F5D3B7"/>
    <path fill-rule="evenodd" clip-rule="evenodd"
          d="M92.3281 26.5902C90.7187 22.5312 79.8919 25.673 80.8727 23.4473C81.5265 21.9635 95.5263 6.14542 96.9345 6.06395C101.165 4.50892 102.676 5.43199 105.283 6.57863C108.612 9.6168 109.156 9.74273 108.367 10.7115C107.012 10.4073 107.094 13.0528 104.621 13.4788C103.837 13.614 101.304 12.3205 100.649 13.7925L100.609 13.9716C100.026 11.9199 98.6591 13.124 98.9559 12.9849C99.0408 12.6065 97.3988 14.3817 97.5053 16.3701L95.1891 20.9307L92.3281 26.5902Z"
          fill="#191847"/>
    <path fill-rule="evenodd" clip-rule="evenodd"
          d="M126.865 67.3116L141.333 70.2235C144.51 69.5976 147.341 69.4108 149.827 69.6631C150.494 69.8737 151.49 70.4877 149.607 71.2856C147.723 72.0835 145.783 73.0162 145.895 73.8308C146.008 74.6455 147.53 74.8866 147.514 76.074C147.504 76.8657 145.106 76.1608 140.322 73.9594L128.219 70.5391L126.865 67.3116ZM88.1988 88.0998L85.7187 90.0391C89.3805 106.874 100.404 110.417 100.552 111.487C100.886 113.895 104.063 116.152 105.6 117.455C104.007 119.672 102.134 115.568 100.152 118.419C98.343 121.02 97.6816 124.352 93.7644 123.899C93.2828 123.843 92.4132 123.135 92.9724 121.927C94.3655 118.918 96.0828 114.032 95.996 112.769C95.8777 111.045 93.2786 102.822 88.1988 88.0998Z"
          fill="#E4C3A8"/>
    <path fill-rule="evenodd" clip-rule="evenodd"
          d="M79.7921 80.8913C90.7923 89.704 104.184 102.198 104.472 102.816C104.665 103.228 103.045 113.142 99.6139 132.559L102.903 133.534C110.497 112.395 113.786 100.847 112.769 98.8889C111.245 95.9522 96.7502 77.3272 86.8856 67.6675L79.7921 80.8913Z"
          fill="#B28B67"/>
    <path fill-rule="evenodd" clip-rule="evenodd"
          d="M100.182 125.368L105.536 126.832C114.657 113.002 118.509 103.528 117.09 98.4109C115.672 93.2934 105.788 82.7042 87.4407 66.6433L78.3973 83.5021C93.8395 95.8747 101.83 102.422 102.37 103.144C102.909 103.867 102.18 111.274 100.182 125.368Z"
          fill="#516F9C"/>
    <path d="M144.156 73.8047L147.998 72.0452L182.836 148.112C183.322 149.172 182.856 150.426 181.795 150.912V150.912C180.734 151.398 179.48 150.932 178.995 149.871L144.156 73.8047Z"
          fill="#717171"/>
    <rect x="148.836" y="83.9688" width="5.82297" height="64.5013" transform="rotate(61.3753 148.836 83.9688)"
          fill="#717171"/>
    <rect x="148.891" y="86.4766" width="5.82297" height="68.9761" transform="rotate(45 148.891 86.4766)"
          fill="#717171"/>
    <rect x="144.219" y="72.6328" width="14" height="4" transform="rotate(-12.7976 144.219 72.6328)" fill="#717171"/>
    <path fill-rule="evenodd" clip-rule="evenodd"
          d="M90.4771 47.7618L92.9031 45.7443C108.311 49.8396 122.714 66.1155 140.488 69.125L139.782 74.8578C110.219 65.0312 102.719 61.5313 90.4771 47.7618Z"
          fill="#373737"/>
    <path fill-rule="evenodd" clip-rule="evenodd"
          d="M128.382 64.2739L142.207 69.4395C145.442 69.3244 148.267 69.5881 150.682 70.2308C151.308 70.5444 152.194 71.3083 150.208 71.798C148.222 72.2876 146.159 72.9014 146.14 73.7236C146.122 74.5457 147.587 75.0248 147.384 76.1948C147.248 76.9748 144.993 75.8993 140.617 72.9683L129.219 69.4395L128.382 64.2739ZM84.7188 82.0312C85.6693 99.2332 95.4308 102.647 95.4079 103.727C95.3563 106.157 98.136 108.888 99.4474 110.418C97.5229 112.355 96.3233 108.007 93.9152 110.508C91.7172 112.79 90.5366 115.975 86.7406 114.908C86.2739 114.776 85.5273 113.939 86.2707 112.835C88.1226 110.085 90.5917 105.532 90.7061 104.271C90.862 102.55 87.4037 97.3723 84.7188 82.0312Z"
          fill="#F5D3B7"/>
    <path fill-rule="evenodd" clip-rule="evenodd"
          d="M61.25 73.3359L91.484 123.882L114.151 166.614L119.033 166.614L81.0545 73.3359L61.25 73.3359Z"
          fill="#F5D3B7"/>
    <path fill-rule="evenodd" clip-rule="evenodd"
          d="M111.739 165.013C111.124 166.119 110.773 166.964 110.686 167.546C110.58 168.254 110.543 169.304 110.576 170.698L132.717 174.015C133.577 172.199 133.399 171.122 132.182 170.785C130.965 170.447 129.956 170.156 129.154 169.911L119.55 163.782C119.366 163.664 119.12 163.718 119.002 163.903C119 163.906 118.998 163.909 118.996 163.912L118.094 165.418C116.867 165.781 115.894 165.909 115.177 165.802C114.594 165.714 113.824 165.358 112.867 164.734C112.5 164.494 112.008 164.597 111.769 164.964C111.758 164.98 111.748 164.996 111.739 165.013Z"
          fill="#4A4A4A"/>
    <path fill-rule="evenodd" clip-rule="evenodd"
          d="M107.852 159.771L117.267 156.923C113.142 144.591 108.086 131.021 102.099 116.211C96.1127 101.401 89.6833 87.1097 82.811 73.3359L56.7187 74.0312C64.3592 91.4544 76.1593 109.245 84.7187 123.484C93.2782 137.724 98.1891 148.049 107.852 159.771Z"
          fill="#5D86C4"/>
    <path fill-rule="evenodd" clip-rule="evenodd"
          d="M69.6932 65.3058L85.7188 76.0312C85.7188 76.0312 90.7188 75.5312 92.7187 73.7969C95.7553 62.292 95.197 47.6549 102.219 32.5313L97.979 28.3617C87.1187 36.2156 79.0018 48.325 69.6932 65.3058Z"
          fill="#DDDDDD"/>
    <path fill-rule="evenodd" clip-rule="evenodd"
          d="M84.1738 34.6336C83.2863 33.8168 82.8217 32.6571 82.7799 31.1545C82.5995 24.6771 84.8911 22.2209 88.1356 22.5702C91.3801 22.9195 92.969 26.0407 97.4342 28.1138C97.6771 28.2266 97.8917 28.3468 98.078 28.4744L100.258 29.6597C95.4306 56.9289 89.6876 73.9514 83.029 80.7273L62.7187 73.5313C59.2188 74.5367 59.2318 73.4708 57.2188 75.0312L56.6018 74.5367C64.4775 56.2593 70.1092 43.4027 84.1738 34.6336Z"
          fill="#595959"/>
    <path fill-rule="evenodd" clip-rule="evenodd"
          d="M65.6008 61.1201C65.4833 67.469 66.0038 72.1533 67.1625 75.173L59.2152 74.1694C61.1797 70.5202 63.3082 66.1704 65.6008 61.1201Z"
          fill="#373737"/>
    <path fill-rule="evenodd" clip-rule="evenodd"
          d="M92.7241 45.0391L97.7185 35.0382C105.719 41.5391 124.332 62.5457 141.29 68.6606L139.219 73.5391C119.219 66.0391 103.219 57.0391 92.7241 45.0391Z"
          fill="#595959"/>
</svg>
